<?xml version="1.0" encoding="UTF-8"?>
<svg version="1.1" xmlns="http://www.w3.org/2000/svg" width="512" height="512">
<path d="M0 0 C1.12921875 0.36222656 2.2584375 0.72445313 3.421875 1.09765625 C29.94163468 10.45570542 49.69306248 30.28222552 61.8125 55.375 C67.36249872 67.34709519 70.15071285 80.55559863 70.14717102 93.73051453 C70.15084771 94.47784137 70.1545244 95.22516822 70.1583125 95.99514133 C70.16926866 98.4833403 70.17317947 100.9714974 70.17700195 103.4597168 C70.18327307 105.25093719 70.18992043 107.04215631 70.19691467 108.83337402 C70.21789328 114.70531317 70.22831631 120.57725236 70.23828125 126.44921875 C70.24233215 128.47915981 70.24644917 130.50910073 70.25063133 132.53904152 C70.26967517 142.08583153 70.28390378 151.63261388 70.2922433 161.17941922 C70.30199082 172.15370873 70.32824859 183.12779521 70.36874419 194.10201329 C70.39905425 202.61195238 70.41372649 211.12183379 70.41702431 219.63182575 C70.41935926 224.70067901 70.4281137 229.76931523 70.45348549 234.83810997 C70.47703111 239.6193885 70.4808949 244.40031118 70.47072411 249.181633 C70.47023488 250.91964984 70.47636995 252.65768581 70.49028015 254.39564705 C70.72833103 285.94943305 60.57295268 311.86244291 38.5625 334.5078125 C19.68814138 352.32669712 -6.08735301 362.13873158 -32 362 C-59.15227349 360.84445538 -84.78406743 350.50008684 -104 331 C-124.5107083 308.51235596 -132.31061088 282.82503225 -132.29052734 252.97265625 C-132.29652335 251.18069685 -132.30333134 249.38874002 -132.31088257 247.5967865 C-132.32844494 242.75951762 -132.33323393 237.92231965 -132.33451414 233.08502197 C-132.33594235 230.05219805 -132.34022465 227.01939178 -132.34550858 223.98657227 C-132.36397966 213.37531403 -132.37218324 202.76410581 -132.37060547 192.15283203 C-132.36940628 182.31221068 -132.39047241 172.47180944 -132.4220928 162.63124371 C-132.44838281 154.14242634 -132.4589674 145.65368027 -132.45769465 137.16482258 C-132.45718855 132.11282404 -132.46267373 127.06102116 -132.48405075 122.00906372 C-132.50364792 117.2482214 -132.50341352 112.48775703 -132.48901749 107.7269001 C-132.48695429 105.99694824 -132.491478 104.26697134 -132.5037384 102.53706169 C-132.62721094 83.88048067 -129.58057372 66.6662033 -121 50 C-120.46503906 48.94425781 -119.93007812 47.88851562 -119.37890625 46.80078125 C-106.55866726 23.28163778 -84.62530436 6.81413479 -59.1875 -0.75 C-40.27590672 -6.31160898 -18.75094741 -6.1894361 0 0 Z " fill="#000000" transform="translate(287,4)"/>
<path d="M0 0 C5.57038151 3.20072325 7.96438074 7.19622742 9.625 13.3125 C10.03013533 16.82466585 10.21922855 20.34701456 10.4375 23.875 C11.77319025 41.38412659 15.61167226 57.64829592 23.625 73.3125 C23.97079102 73.99183594 24.31658203 74.67117188 24.67285156 75.37109375 C29.43811904 84.58423015 34.75685499 92.51330979 41.625 100.3125 C42.48240965 101.39326847 43.33718329 102.47614219 44.1875 103.5625 C65.47191726 127.57568871 97.95188371 141.12548298 129.5625 143.1875 C163.07371 144.74658951 193.91172127 133.45614104 219.625 112.3125 C220.32238281 111.75691406 221.01976562 111.20132813 221.73828125 110.62890625 C239.71070077 95.92419937 252.61754018 72.44654255 258.625 50.3125 C258.91890625 49.24644531 259.2128125 48.18039062 259.515625 47.08203125 C261.57727631 38.6231972 262.27947167 30.15880625 262.8034668 21.48242188 C263.28736239 14.46623628 263.92176698 7.36313133 269.5 2.4375 C275.53407898 -1.6656737 280.40234991 -2.40860194 287.625 -1.6875 C293.0701873 0.09265739 296.40726393 3.700761 299.625 8.3125 C307.67784002 32.47102006 295.33205281 67.54681307 284.70458984 89.17480469 C270.39572771 117.50777547 250.06466103 139.84817541 223.625 157.3125 C222.87476563 157.81136719 222.12453125 158.31023437 221.3515625 158.82421875 C203.1127819 170.36736727 177.41288837 180.3125 155.625 180.3125 C155.625 195.8225 155.625 211.3325 155.625 227.3125 C160.28496094 227.27769531 164.94492187 227.24289062 169.74609375 227.20703125 C172.7129033 227.19168766 175.67966335 227.17724478 178.64648438 227.16601562 C183.34702825 227.14813964 188.04739543 227.12708038 192.74780273 227.08618164 C196.54091887 227.053387 200.3338453 227.03560502 204.12709236 227.02786827 C205.56825811 227.02236058 207.00941445 227.01160612 208.45049858 226.99530983 C217.59962706 226.89604094 225.57961791 227.13171564 233.5 232.125 C237.55633489 236.30063885 238.824117 239.94246958 239.0625 245.6875 C238.85516895 251.79132622 237.5511561 256.30349419 233.23922729 260.73750877 C226.20730654 265.98820518 217.66924742 265.01338976 209.3203125 264.95947266 C207.55872699 264.96625423 205.79714857 264.9751604 204.0355835 264.98602295 C199.26689927 265.00875871 194.49875774 265.00000366 189.73006439 264.98412752 C184.73164951 264.97143883 179.73328005 264.98321688 174.73486328 264.99105835 C166.34203783 265.00014626 157.94943261 264.98818951 149.55664062 264.96435547 C139.86346601 264.93714587 130.17081729 264.94596064 120.47765541 264.9734875 C112.14448366 264.996202 103.81146992 264.99936719 95.47827721 264.98629415 C90.50595865 264.97851252 85.53388701 264.97742259 80.56158447 264.99397659 C75.88606488 265.00845618 71.21122108 264.99833609 66.53577423 264.96950531 C64.8233782 264.9629131 63.11092496 264.96476019 61.39855194 264.97581863 C45.8092318 265.06718616 45.8092318 265.06718616 40.01077271 260.73750877 C35.76895761 256.37559307 34.3867771 251.81578372 34.0625 245.8125 C34.29373043 240.25526189 35.80445615 236.37242629 39.625 232.3125 C45.36490015 227.81471947 51.17230479 227.1854394 58.2512207 227.19897461 C59.21791939 227.19875557 59.21791939 227.19875557 60.20414734 227.1985321 C62.31972704 227.19922494 64.43521706 227.20698769 66.55078125 227.21484375 C68.02337089 227.21671017 69.49596115 227.21813301 70.96855164 227.21913147 C74.83352388 227.22293904 78.6984582 227.23275421 82.56341553 227.24383545 C87.20655789 227.25589184 91.84971296 227.2604602 96.49286652 227.26628876 C103.53693734 227.27596697 110.58092505 227.29513581 117.625 227.3125 C117.625 211.8025 117.625 196.2925 117.625 180.3125 C112.345 179.6525 107.065 178.9925 101.625 178.3125 C98.04025871 177.50393056 94.6245957 176.67848726 91.125 175.625 C90.24481201 175.36662354 89.36462402 175.10824707 88.45776367 174.84204102 C80.18908183 172.33141073 72.40677685 169.04457665 64.625 165.3125 C63.69429688 164.88066406 62.76359375 164.44882812 61.8046875 164.00390625 C24.96398609 146.39197219 -4.38631324 111.87920413 -18.30224609 73.7734375 C-22.01144297 62.82785485 -24.59471287 51.72426857 -26.375 40.3125 C-26.55933594 39.23742187 -26.74367188 38.16234375 -26.93359375 37.0546875 C-27.51684655 32.10994251 -27.59837759 27.22506349 -27.625 22.25 C-27.645625 21.28255859 -27.66625 20.31511719 -27.6875 19.31835938 C-27.72261066 12.90627494 -27.17988219 8.35324728 -22.65625 3.44921875 C-22.0684375 2.97097656 -21.480625 2.49273437 -20.875 2 C-20.2871875 1.50886719 -19.699375 1.01773438 -19.09375 0.51171875 C-13.66882871 -3.27339679 -5.77666159 -2.68782753 0 0 Z " fill="#000000" transform="translate(119.375,247.6875)"/>
</svg>
